# Created by FreeCAD <http://www.freecadweb.org>
v -0.000000 137.377792 -20.000000
v -0.000000 2.853624 -20.000000
v -0.000000 2.853624 0.000000
v -0.000000 137.377792 0.000000
v 3.281978 140.661713 -20.000000
v 2.551557 140.579010 -20.000000
v 3.281978 140.661713 0.000000
v 2.551557 140.579010 0.000000
v 1.857831 140.335907 -20.000000
v 1.857831 140.335907 0.000000
v 1.235562 139.944580 0.000000
v 1.235562 139.944580 -20.000000
v 0.715929 139.424637 -20.000000
v 0.715929 139.424637 0.000000
v 0.324970 138.802139 -20.000000
v 0.324970 138.802139 0.000000
v 0.082273 138.108261 -20.000000
v 0.082273 138.108261 0.000000
v 63.307571 140.697083 -20.000000
v 63.307571 140.697083 0.000000
v 68.257454 135.751663 -20.000000
v 68.133034 136.852615 -20.000000
v 68.257454 135.751663 0.000000
v 68.133034 136.852615 0.000000
v 67.766708 137.898270 -20.000000
v 67.766708 137.898270 0.000000
v 67.176849 138.836166 -20.000000
v 67.176849 138.836166 0.000000
v 66.393051 139.619263 -20.000000
v 66.393051 139.619263 0.000000
v 65.454620 140.208282 0.000000
v 65.454620 140.208282 -20.000000
v 64.408638 140.573654 -20.000000
v 64.408638 140.573654 0.000000
v 68.299034 3.077479 -20.000000
v 68.299034 3.077479 0.000000
v 65.222519 -0.000000 -20.000000
v 65.907242 0.077165 -20.000000
v 65.222519 -0.000000 0.000000
v 65.907242 0.077165 0.000000
v 66.557617 0.304790 -20.000000
v 66.557617 0.304790 0.000000
v 67.141022 0.671456 -20.000000
v 67.141022 0.671456 0.000000
v 67.628181 1.158770 -20.000000
v 67.628181 1.158770 0.000000
v 67.994667 1.742286 -20.000000
v 67.994667 1.742286 0.000000
v 68.222084 2.392732 -20.000000
v 68.222084 2.392732 0.000000
v 2.853624 0.000000 -20.000000
v 2.853624 0.000000 0.000000
v 0.071546 2.218633 -20.000000
v 0.071546 2.218633 0.000000
v 0.282598 1.615483 -20.000000
v 0.282598 1.615483 0.000000
v 0.622571 1.074419 -20.000000
v 0.622571 1.074419 0.000000
v 1.074419 0.622571 -20.000000
v 1.074419 0.622571 0.000000
v 1.615483 0.282598 0.000000
v 1.615483 0.282598 -20.000000
v 2.218633 0.071546 0.000000
v 2.218633 0.071546 -20.000000
vn -1.000000 0.000000 0.000000
vn -1.000000 0.000000 0.000000
vn -0.112507 0.993651 0.000000
vn -0.112507 0.993651 0.000000
vn -0.330713 0.943731 0.000000
vn -0.532353 0.846522 0.000000
vn -0.330713 0.943731 0.000000
vn -0.532353 0.846522 0.000000
vn -0.707318 0.706896 0.000000
vn -0.707318 0.706896 0.000000
vn -0.846835 0.531855 0.000000
vn -0.846835 0.531855 0.000000
vn -0.943926 0.330156 0.000000
vn -0.943926 0.330156 0.000000
vn -0.993717 0.111923 0.000000
vn -0.993717 0.111923 0.000000
vn -0.000589 1.000000 0.000000
vn -0.000589 1.000000 0.000000
vn 0.993675 0.112297 -0.000000
vn 0.993675 0.112297 0.000000
vn 0.943761 0.330629 0.000000
vn 0.943761 0.330629 -0.000000
vn 0.846505 0.532381 0.000000
vn 0.846505 0.532381 -0.000000
vn 0.706790 0.707423 0.000000
vn 0.531621 0.846982 0.000000
vn 0.706790 0.707423 -0.000000
vn 0.531621 0.846982 0.000000
vn 0.329770 0.944061 0.000000
vn 0.329770 0.944061 -0.000000
vn 0.111401 0.993776 0.000000
vn 0.111401 0.993776 -0.000000
vn 1.000000 0.000313 -0.000000
vn 1.000000 0.000313 0.000000
vn 0.111987 -0.993710 0.000000
vn 0.111987 -0.993710 0.000000
vn 0.330342 -0.943861 0.000000
vn 0.330342 -0.943861 0.000000
vn 0.532124 -0.846666 0.000000
vn 0.532124 -0.846666 0.000000
vn 0.707219 -0.706995 0.000000
vn 0.707219 -0.706995 0.000000
vn 0.846830 -0.531864 0.000000
vn 0.846830 -0.531864 0.000000
vn 0.943967 -0.330041 0.000000
vn 0.943967 -0.330041 0.000000
vn 0.993745 -0.111674 0.000000
vn 0.993745 -0.111674 0.000000
vn -0.000000 -1.000000 0.000000
vn -0.000000 -1.000000 0.000000
vn -0.993712 -0.111964 0.000000
vn -0.993712 -0.111964 0.000000
vn -0.943883 -0.330279 0.000000
vn -0.943883 -0.330279 0.000000
vn -0.846724 -0.532032 0.000000
vn -0.846724 -0.532032 0.000000
vn -0.707107 -0.707107 0.000000
vn -0.532032 -0.846724 -0.000000
vn -0.707107 -0.707107 0.000000
vn -0.330279 -0.943883 -0.000000
vn -0.532032 -0.846724 0.000000
vn -0.111964 -0.993712 -0.000000
vn -0.330279 -0.943883 0.000000
vn -0.111964 -0.993712 0.000000
vn 0.000000 0.000000 -1.000000
vn 0.000000 0.000000 -1.000000
vn 0.000000 0.000000 -1.000000
vn 0.000000 0.000000 -1.000000
vn 0.000000 0.000000 -1.000000
vn 0.000000 0.000000 -1.000000
vn 0.000000 0.000000 -1.000000
vn 0.000000 0.000000 -1.000000
vn 0.000000 0.000000 -1.000000
vn 0.000000 0.000000 -1.000000
vn 0.000000 0.000000 -1.000000
vn 0.000000 0.000000 -1.000000
vn 0.000000 0.000000 -1.000000
vn 0.000000 0.000000 -1.000000
vn 0.000000 -0.000000 -1.000000
vn 0.000000 0.000000 -1.000000
vn 0.000000 0.000000 -1.000000
vn 0.000000 0.000000 -1.000000
vn 0.000000 0.000000 -1.000000
vn 0.000000 0.000000 -1.000000
vn 0.000000 0.000000 -1.000000
vn 0.000000 -0.000000 -1.000000
vn 0.000000 0.000000 -1.000000
vn 0.000000 -0.000000 -1.000000
vn 0.000000 -0.000000 -1.000000
vn 0.000000 0.000000 -1.000000
vn 0.000000 -0.000000 -1.000000
vn 0.000000 0.000000 -1.000000
vn 0.000000 0.000000 -1.000000
vn 0.000000 -0.000000 -1.000000
vn 0.000000 -0.000000 1.000000
vn 0.000000 0.000000 1.000000
vn 0.000000 0.000000 1.000000
vn 0.000000 -0.000000 1.000000
vn 0.000000 -0.000000 1.000000
vn 0.000000 -0.000000 1.000000
vn 0.000000 0.000000 1.000000
vn 0.000000 0.000000 1.000000
vn 0.000000 0.000000 1.000000
vn 0.000000 0.000000 1.000000
vn 0.000000 0.000000 1.000000
vn 0.000000 0.000000 1.000000
vn 0.000000 0.000000 1.000000
vn 0.000000 0.000000 1.000000
vn 0.000000 0.000000 1.000000
vn 0.000000 0.000000 1.000000
vn 0.000000 0.000000 1.000000
vn 0.000000 0.000000 1.000000
vn 0.000000 0.000000 1.000000
vn 0.000000 0.000000 1.000000
vn 0.000000 0.000000 1.000000
vn 0.000000 0.000000 1.000000
vn 0.000000 0.000000 1.000000
vn 0.000000 0.000000 1.000000
vn 0.000000 0.000000 1.000000
vn 0.000000 0.000000 1.000000
vn 0.000000 0.000000 1.000000
vn -0.000000 0.000000 1.000000
vn 0.000000 0.000000 1.000000
vn 0.000000 0.000000 1.000000
f 1//1 2//1 3//1
f 1//2 3//2 4//2
f 5//3 6//3 7//3
f 7//4 6//4 8//4
f 8//5 9//5 10//5
f 10//6 9//6 11//6
f 6//7 9//7 8//7
f 9//8 12//8 11//8
f 11//9 13//9 14//9
f 12//10 13//10 11//10
f 14//11 15//11 16//11
f 13//12 15//12 14//12
f 16//13 17//13 18//13
f 15//14 17//14 16//14
f 18//15 1//15 4//15
f 17//16 1//16 18//16
f 19//17 7//17 20//17
f 19//18 5//18 7//18
f 21//19 22//19 23//19
f 23//20 22//20 24//20
f 24//21 25//21 26//21
f 22//22 25//22 24//22
f 26//23 27//23 28//23
f 25//24 27//24 26//24
f 28//25 29//25 30//25
f 30//26 29//26 31//26
f 27//27 29//27 28//27
f 29//28 32//28 31//28
f 31//29 33//29 34//29
f 32//30 33//30 31//30
f 34//31 19//31 20//31
f 33//32 19//32 34//32
f 35//33 21//33 36//33
f 36//34 21//34 23//34
f 37//35 38//35 39//35
f 39//36 38//36 40//36
f 40//37 41//37 42//37
f 38//38 41//38 40//38
f 42//39 43//39 44//39
f 41//40 43//40 42//40
f 44//41 45//41 46//41
f 43//42 45//42 44//42
f 46//43 47//43 48//43
f 45//44 47//44 46//44
f 48//45 49//45 50//45
f 47//46 49//46 48//46
f 50//47 35//47 36//47
f 49//48 35//48 50//48
f 51//49 37//49 52//49
f 52//50 37//50 39//50
f 2//51 53//51 3//51
f 3//52 53//52 54//52
f 54//53 55//53 56//53
f 53//54 55//54 54//54
f 56//55 57//55 58//55
f 55//56 57//56 56//56
f 58//57 59//57 60//57
f 60//58 59//58 61//58
f 57//59 59//59 58//59
f 61//60 62//60 63//60
f 59//61 62//61 61//61
f 63//62 64//62 52//62
f 62//63 64//63 63//63
f 64//64 51//64 52//64
f 47//65 45//65 43//65
f 37//66 41//66 38//66
f 37//67 43//67 41//67
f 35//68 49//68 47//68
f 35//69 47//69 43//69
f 35//70 43//70 37//70
f 62//71 51//71 64//71
f 59//72 51//72 62//72
f 2//73 37//73 51//73
f 2//74 55//74 53//74
f 2//75 57//75 55//75
f 2//76 59//76 57//76
f 2//77 35//77 37//77
f 2//78 51//78 59//78
f 21//79 35//79 2//79
f 27//80 22//80 21//80
f 27//81 25//81 22//81
f 19//82 29//82 27//82
f 19//83 32//83 29//83
f 19//84 33//84 32//84
f 19//85 27//85 21//85
f 1//86 21//86 2//86
f 1//87 19//87 21//87
f 5//88 19//88 1//88
f 6//89 5//89 1//89
f 15//90 1//90 17//90
f 15//91 6//91 1//91
f 12//92 9//92 6//92
f 12//93 15//93 13//93
f 12//94 6//94 15//94
f 46//95 48//95 44//95
f 42//96 39//96 40//96
f 44//97 39//97 42//97
f 50//98 36//98 48//98
f 48//99 36//99 44//99
f 44//100 36//100 39//100
f 52//101 61//101 63//101
f 52//102 60//102 61//102
f 39//103 3//103 52//103
f 56//104 3//104 54//104
f 58//105 3//105 56//105
f 60//106 3//106 58//106
f 36//107 3//107 39//107
f 52//108 3//108 60//108
f 36//109 23//109 3//109
f 24//110 28//110 23//110
f 26//111 28//111 24//111
f 30//112 20//112 28//112
f 31//113 20//113 30//113
f 34//114 20//114 31//114
f 28//115 20//115 23//115
f 23//116 4//116 3//116
f 20//117 4//117 23//117
f 20//118 7//118 4//118
f 7//119 8//119 4//119
f 4//120 16//120 18//120
f 8//121 16//121 4//121
f 10//122 11//122 8//122
f 16//123 11//123 14//123
f 8//124 11//124 16//124
